<svg version="1.1" xmlns="http://www.w3.org/2000/svg" width="1024" height="1024" viewBox="0 0 1024 1024">
<path d="M512 0c-282.795 0-512 229.205-512 512s229.205 512 512 512 512-229.205 512-512-229.205-512-512-512zM314.411 186.795c22.4 0 40.405 18.389 40.405 40.405s-18.005 40.405-40.405 40.405c-22.286-0.073-40.333-18.119-40.405-40.398v-0.007c0-22.4 18.005-40.405 40.405-40.405zM283.605 316.416h61.611v428.416h-61.611zM435.584 316.416h166.4c158.379 0 228.011 113.195 228.011 214.4 0 109.995-86.016 214.4-227.2 214.4h-167.211zM497.195 372.011v317.611h98.005c139.605 0 171.605-105.984 171.605-158.805 0-86.016-54.784-158.805-174.805-158.805z"></path>
</svg>
